<?xml version="1.0" encoding="UTF-8"?>
<svg version="1.1" xmlns="http://www.w3.org/2000/svg" width="52" height="52" viewBox="0 0 512 512">
	<path d="M0 0 C1.01790619 0.00215515 2.03581238 0.0043103 3.08456421 0.00653076 C17.69363523 0.05620146 32.02575853 0.30709809 46.375 3.3125 C47.34985352 3.51117676 48.32470703 3.70985352 49.32910156 3.91455078 C86.24061921 11.63577862 120.90178362 25.97314294 151.375 48.3125 C152.2424585 48.94454346 152.2424585 48.94454346 153.12744141 49.58935547 C160.37723416 54.90780842 167.10620794 60.63229802 173.65625 66.78125 C175.95412963 68.92065518 178.29158807 70.9726899 180.6875 73 C183.94952617 75.83245894 186.76563412 78.88522849 189.55078125 82.18359375 C190.78419972 83.62302216 192.05413567 85.03182121 193.35546875 86.41015625 C205.65985595 99.47656379 215.47661398 114.78779807 224.375 130.3125 C224.80409668 131.06080078 225.23319336 131.80910156 225.67529297 132.58007812 C238.71070917 155.62033667 247.38567422 180.84839856 252.6875 206.75 C252.83485596 207.46889404 252.98221191 208.18778809 253.1340332 208.9284668 C256.10789088 224.57475609 256.74800362 240.04818046 256.6875 255.9375 C256.68534485 256.95540619 256.6831897 257.97331238 256.68096924 259.02206421 C256.63129854 273.63113523 256.38040191 287.96325853 253.375 302.3125 C253.07698486 303.77478027 253.07698486 303.77478027 252.77294922 305.26660156 C245.05172138 342.17811921 230.71435706 376.83928362 208.375 407.3125 C207.9536377 407.89080566 207.53227539 408.46911133 207.09814453 409.06494141 C201.77969158 416.31473416 196.05520198 423.04370794 189.90625 429.59375 C187.76684482 431.89162963 185.7148101 434.22908807 183.6875 436.625 C180.85504106 439.88702617 177.80227151 442.70313412 174.50390625 445.48828125 C173.06447784 446.72169972 171.65567879 447.99163567 170.27734375 449.29296875 C157.21093621 461.59735595 141.89970193 471.41411398 126.375 480.3125 C125.62669922 480.74159668 124.87839844 481.17069336 124.10742188 481.61279297 C101.06716333 494.64820917 75.83910144 503.32317422 49.9375 508.625 C49.21860596 508.77235596 48.49971191 508.91971191 47.7590332 509.0715332 C32.11274391 512.04539088 16.63931954 512.68550362 0.75 512.625 C-0.77685928 512.62176727 -0.77685928 512.62176727 -2.33456421 512.61846924 C-16.94363523 512.56879854 -31.27575853 512.31790191 -45.625 509.3125 C-47.08728027 509.01448486 -47.08728027 509.01448486 -48.57910156 508.71044922 C-85.49061921 500.98922138 -120.15178362 486.65185706 -150.625 464.3125 C-151.20330566 463.8911377 -151.78161133 463.46977539 -152.37744141 463.03564453 C-159.62723416 457.71719158 -166.35620794 451.99270198 -172.90625 445.84375 C-175.20412963 443.70434482 -177.54158807 441.6523101 -179.9375 439.625 C-183.19952617 436.79254106 -186.01563412 433.73977151 -188.80078125 430.44140625 C-190.03419972 429.00197784 -191.30413567 427.59317879 -192.60546875 426.21484375 C-204.90985595 413.14843621 -214.72661398 397.83720193 -223.625 382.3125 C-224.26864502 381.19004883 -224.26864502 381.19004883 -224.92529297 380.04492188 C-237.96070917 357.00466333 -246.63567422 331.77660144 -251.9375 305.875 C-252.08485596 305.15610596 -252.23221191 304.43721191 -252.3840332 303.6965332 C-255.35789088 288.05024391 -255.99800362 272.57681954 -255.9375 256.6875 C-255.93534485 255.66959381 -255.9331897 254.65168762 -255.93096924 253.60293579 C-255.88129854 238.99386477 -255.63040191 224.66174147 -252.625 210.3125 C-252.42632324 209.33764648 -252.22764648 208.36279297 -252.02294922 207.35839844 C-244.30172138 170.44688079 -229.96435706 135.78571638 -207.625 105.3125 C-206.99295654 104.4450415 -206.99295654 104.4450415 -206.34814453 103.56005859 C-201.02969158 96.31026584 -195.30520198 89.58129206 -189.15625 83.03125 C-187.01684482 80.73337037 -184.9648101 78.39591193 -182.9375 76 C-180.10504106 72.73797383 -177.05227151 69.92186588 -173.75390625 67.13671875 C-172.31447784 65.90330028 -170.90567879 64.63336433 -169.52734375 63.33203125 C-156.46093621 51.02764405 -141.14970193 41.21088602 -125.625 32.3125 C-124.87669922 31.88340332 -124.12839844 31.45430664 -123.35742188 31.01220703 C-100.31716333 17.97679083 -75.08910144 9.30182578 -49.1875 4 C-48.46860596 3.85264404 -47.74971191 3.70528809 -47.0090332 3.5534668 C-31.36274391 0.57960912 -15.88931954 -0.06050362 0 0 Z " fill="#1267BF" transform="translate(255.625,-0.3125)"/>
	<path d="M0 0 C0.66 0 1.32 0 2 0 C11.88887176 19.23402548 15.17750908 39.85008784 17.125 61.1875 C17.21370361 62.14076172 17.30240723 63.09402344 17.39379883 64.07617188 C17.82637144 69.20029614 18.02522797 74.23240692 17.921875 79.375 C17.36262602 91.90461764 17.36262602 91.90461764 22.95263672 102.57446289 C25.50728343 104.93578708 28.17556696 106.96345363 31 109 C32.42980893 110.2349457 33.84862089 111.48288476 35.25 112.75 C35.87390625 113.28109375 36.4978125 113.8121875 37.140625 114.359375 C39.18300828 116.16147789 41.08901711 118.05938947 43 120 C45.71090995 122.73764476 48.45805062 125.41168758 51.3125 128 C51.94800781 128.5775 52.58351563 129.155 53.23828125 129.75 C55.04775977 131.28933471 55.04775977 131.28933471 58 131 C58.66 130.34 59.32 129.68 60 129 C64.50661126 125.99559249 68.73385435 126.23443698 74 127 C78.48530992 129.16256014 80.94776792 131.46348699 83 136 C83.77866262 139.43616278 83.98411637 142.21134053 83.71875 145.7421875 C83.33006152 151.2579575 83.21714149 156.424036 86.46972656 161.12353516 C90.47355897 165.56366909 95.0618007 169.33062838 99.69433594 173.09326172 C103.19617738 175.98921488 106.46136402 179.11703653 109.75 182.25 C110.98013842 183.40018588 112.21188653 184.5486528 113.4453125 185.6953125 C114.03860352 186.24735352 114.63189453 186.79939453 115.24316406 187.36816406 C117.49474614 189.45954463 119.74893871 191.54800899 122.00976562 193.62939453 C123.08025142 194.62059707 124.14418168 195.61893028 125.20117188 196.62451172 C127.90699266 199.17991576 130.62268564 201.49132129 133.6640625 203.640625 C142.27029685 210.02801944 142.27029685 210.02801944 143.65673828 215.67480469 C144.47603841 222.11291796 144.40489761 228.53199813 144 235 C131.01277576 229.36201677 118.30220711 223.24574698 105.67724609 216.84545898 C97.21885741 212.56301624 88.68970269 208.4442597 80.1302948 204.36758423 C72.97204839 200.95409603 65.83840103 197.49323798 58.71875 194 C57.71060745 193.50543304 56.7024649 193.01086609 55.66377258 192.50131226 C51.55683036 190.48532228 47.45078244 188.46751831 43.34521484 186.44873047 C40.28295296 184.94350257 37.21965773 183.44039419 34.15625 181.9375 C33.23646362 181.48439453 32.31667725 181.03128906 31.36901855 180.56445312 C30.06970398 179.92733398 30.06970398 179.92733398 28.74414062 179.27734375 C27.99410767 178.90859131 27.24407471 178.53983887 26.47131348 178.15991211 C23.34593853 176.69301595 20.17880611 175.34720427 17 174 C16.94417252 175.16083099 16.88834503 176.32166199 16.83082581 177.51766968 C16.31369125 187.96408136 15.63901436 198.3847857 14.78309441 208.80867386 C14.58289012 211.24881513 14.38632173 213.68922816 14.19056702 216.12973022 C13.63468229 223.05155721 13.07200763 229.97282932 12.50854492 236.89404297 C12.16074677 241.16915837 11.81645614 245.44454549 11.47415352 249.72010422 C11.2819337 252.10706506 11.08559983 254.49366414 10.8891449 256.88027954 C8.88164637 268.9233824 8.88164637 268.9233824 11.36398315 279.76803589 C13.13749168 281.45596638 14.99890875 282.8396852 17 284.25 C18.46811814 285.35848789 19.93554592 286.46789061 21.40234375 287.578125 C22.16144043 288.13822266 22.92053711 288.69832031 23.70263672 289.27539062 C27.41926712 292.06543071 30.98133778 295.03950455 34.5625 298 C35.8322795 299.04453721 37.10432413 300.08632855 38.37890625 301.125 C38.97324463 301.61331299 39.56758301 302.10162598 40.17993164 302.60473633 C41.98854326 304.04026379 41.98854326 304.04026379 44.02124023 305.24487305 C45.96875 306.44921875 45.96875 306.44921875 49 309 C49.46484375 312.33203125 49.46484375 312.33203125 48.9375 315.8125 C48.78152344 316.97394531 48.62554687 318.13539063 48.46484375 319.33203125 C48.31144531 320.21246094 48.15804687 321.09289062 48 322 C42.48988715 321.46525529 37.85814789 320.43782536 32.6328125 318.49609375 C31.23740967 317.99684199 29.84156033 317.4988368 28.4453125 317.00195312 C26.29758011 316.22897345 24.15403753 315.44842271 22.01757812 314.64477539 C2.89952907 307.49777872 -11.91988663 309.38260335 -30.9375 316 C-33.49425366 316.86197333 -36.053392 317.71640638 -38.61366272 318.56787109 C-40.18777504 319.09425032 -41.75941828 319.62808941 -43.32810974 320.17041016 C-46.34245947 321.20134564 -48.78995027 322 -52 322 C-52.05498128 320.62546802 -52.09322822 319.25026422 -52.125 317.875 C-52.14820313 317.10929687 -52.17140625 316.34359375 -52.1953125 315.5546875 C-51.88319639 311.47220882 -51.44371458 308.37621512 -48.36035156 305.43701172 C-46.14429117 303.70958576 -43.87391278 302.09757059 -41.5625 300.5 C-40.3108606 299.59858276 -40.3108606 299.59858276 -39.03393555 298.67895508 C-34.57748446 295.47459222 -30.06522931 292.3632189 -25.515625 289.29296875 C-24.64349365 288.68839844 -23.7713623 288.08382813 -22.87280273 287.4609375 C-21.1975201 286.30052432 -19.50457044 285.16511352 -17.79321289 284.05859375 C-13.65921067 281.27867046 -13.65921067 281.27867046 -11.45898438 277.00683594 C-11.4222719 274.61080724 -11.67308958 272.37373414 -12 270 C-12.12989204 268.12289952 -12.25176284 266.2452331 -12.3671875 264.3671875 C-12.53454687 262.20297634 -12.70394456 260.03892217 -12.875 257.875 C-13.92073914 244.06578409 -14.64294329 230.24797877 -15.30224609 216.41552734 C-15.37950391 214.81736445 -15.45713162 213.21921939 -15.53515625 211.62109375 C-15.59120026 210.46679871 -15.59120026 210.46679871 -15.64837646 209.28918457 C-15.85153875 205.29326027 -16.13679214 201.32771393 -16.55859375 197.34765625 C-17.27744812 190.25323991 -17.08041749 183.12141586 -17 176 C-18.13800049 176.50635986 -19.27600098 177.01271973 -20.44848633 177.53442383 C-95.54174489 210.94380282 -95.54174489 210.94380282 -126 224.125 C-127.20003662 224.64483459 -127.20003662 224.64483459 -128.42431641 225.1751709 C-130.65719836 226.14180005 -132.89090393 227.10649328 -135.125 228.0703125 C-135.78218018 228.35474213 -136.43936035 228.63917175 -137.11645508 228.93222046 C-139.72541086 230.0549404 -142.30358555 231.10119518 -145 232 C-144.92469985 214.00326302 -144.92469985 214.00326302 -138.97265625 207.7265625 C-136.40255469 205.35126082 -133.75342372 203.16389975 -131 201 C-129.57725682 199.75692064 -128.15959693 198.50796698 -126.75 197.25 C-126.12609375 196.71890625 -125.5021875 196.1878125 -124.859375 195.640625 C-122.10641965 193.21154675 -119.57096018 190.57986404 -116.99609375 187.96484375 C-115.07892823 186.07769256 -113.10424678 184.31314625 -111.0625 182.5625 C-107.25875276 179.29470149 -103.76207011 175.77953821 -100.2421875 172.2109375 C-97.50747159 169.5143361 -94.64926073 166.9975184 -91.7265625 164.5078125 C-91.15679687 164.01023437 -90.58703125 163.51265625 -90 163 C-89.20553467 162.37363647 -89.20553467 162.37363647 -88.39501953 161.73461914 C-86.44621549 159.31140375 -86.75614563 157.80699862 -86.953125 154.73828125 C-86.994375 153.70123047 -87.035625 152.66417969 -87.078125 151.59570312 C-87.1917347 149.42549968 -87.3216649 147.25608253 -87.46875 145.08789062 C-87.66926187 139.29094925 -87.48718482 135.79665306 -83.609375 131.29296875 C-80.18023445 127.88817032 -78.08483944 126.82668477 -73.25 126.6875 C-67.52986109 126.73702501 -64.3951297 128.63868389 -60.33984375 132.63671875 C-59.67662109 133.31154297 -59.67662109 133.31154297 -59 134 C-58.443125 133.43152344 -57.88625 132.86304688 -57.3125 132.27734375 C-52.97871966 127.89231939 -48.57725816 123.69274711 -43.8984375 119.6796875 C-42.02029247 118.01795424 -40.25694484 116.28874475 -38.5 114.5 C-29.89080991 105.7541561 -29.89080991 105.7541561 -24.99072266 102.78076172 C-21.16418386 100.15633931 -19.26101216 98.29758711 -18.32641602 93.65136719 C-18.16197017 90.20513538 -18.11532111 86.81660833 -18.1991272 83.37020874 C-18.28575259 79.54710321 -18.22991686 75.72577805 -18.18359375 71.90234375 C-18.17680099 71.13914322 -18.17000824 70.37594269 -18.16300964 69.58961487 C-17.86068635 47.188376 -12.67184026 19.00776039 0 0 Z " fill="#FDFDFE" transform="translate(257,95)"/>
	<path d="M0 0 C1.01790619 0.00215515 2.03581238 0.0043103 3.08456421 0.00653076 C17.69363523 0.05620146 32.02575853 0.30709809 46.375 3.3125 C47.34985352 3.51117676 48.32470703 3.70985352 49.32910156 3.91455078 C86.24061921 11.63577862 120.90178362 25.97314294 151.375 48.3125 C152.2424585 48.94454346 152.2424585 48.94454346 153.12744141 49.58935547 C160.37723416 54.90780842 167.10620794 60.63229802 173.65625 66.78125 C175.95412963 68.92065518 178.29158807 70.9726899 180.6875 73 C183.94952617 75.83245894 186.76563412 78.88522849 189.55078125 82.18359375 C190.78419972 83.62302216 192.05413567 85.03182121 193.35546875 86.41015625 C205.65985595 99.47656379 215.47661398 114.78779807 224.375 130.3125 C224.80409668 131.06080078 225.23319336 131.80910156 225.67529297 132.58007812 C238.71070917 155.62033667 247.38567422 180.84839856 252.6875 206.75 C252.83485596 207.46889404 252.98221191 208.18778809 253.1340332 208.9284668 C256.10789088 224.57475609 256.74800362 240.04818046 256.6875 255.9375 C256.68534485 256.95540619 256.6831897 257.97331238 256.68096924 259.02206421 C256.63129854 273.63113523 256.38040191 287.96325853 253.375 302.3125 C253.07698486 303.77478027 253.07698486 303.77478027 252.77294922 305.26660156 C245.05172138 342.17811921 230.71435706 376.83928362 208.375 407.3125 C207.9536377 407.89080566 207.53227539 408.46911133 207.09814453 409.06494141 C201.77969158 416.31473416 196.05520198 423.04370794 189.90625 429.59375 C187.76684482 431.89162963 185.7148101 434.22908807 183.6875 436.625 C180.85504106 439.88702617 177.80227151 442.70313412 174.50390625 445.48828125 C173.06447784 446.72169972 171.65567879 447.99163567 170.27734375 449.29296875 C157.21093621 461.59735595 141.89970193 471.41411398 126.375 480.3125 C125.62669922 480.74159668 124.87839844 481.17069336 124.10742188 481.61279297 C101.06716333 494.64820917 75.83910144 503.32317422 49.9375 508.625 C49.21860596 508.77235596 48.49971191 508.91971191 47.7590332 509.0715332 C32.11274391 512.04539088 16.63931954 512.68550362 0.75 512.625 C-0.77685928 512.62176727 -0.77685928 512.62176727 -2.33456421 512.61846924 C-16.94363523 512.56879854 -31.27575853 512.31790191 -45.625 509.3125 C-47.08728027 509.01448486 -47.08728027 509.01448486 -48.57910156 508.71044922 C-85.49061921 500.98922138 -120.15178362 486.65185706 -150.625 464.3125 C-151.20330566 463.8911377 -151.78161133 463.46977539 -152.37744141 463.03564453 C-159.62723416 457.71719158 -166.35620794 451.99270198 -172.90625 445.84375 C-175.20412963 443.70434482 -177.54158807 441.6523101 -179.9375 439.625 C-183.19952617 436.79254106 -186.01563412 433.73977151 -188.80078125 430.44140625 C-190.03419972 429.00197784 -191.30413567 427.59317879 -192.60546875 426.21484375 C-197.73452834 420.76813748 -202.18320861 414.99787811 -206.5625 408.9375 C-207.13049316 408.15197754 -207.69848633 407.36645508 -208.28369141 406.55712891 C-210.66473031 403.22080139 -212.86593617 400.02521665 -214.625 396.3125 C-213.965 395.6525 -213.305 394.9925 -212.625 394.3125 C-212.625 395.3025 -212.625 396.2925 -212.625 397.3125 C-211.965 397.3125 -211.305 397.3125 -210.625 397.3125 C-210.625 398.3025 -210.625 399.2925 -210.625 400.3125 C-209.965 400.3125 -209.305 400.3125 -208.625 400.3125 C-208.625 400.9725 -208.625 401.6325 -208.625 402.3125 C-207.965 402.3125 -207.305 402.3125 -206.625 402.3125 C-206.295 403.9625 -205.965 405.6125 -205.625 407.3125 C-204.965 407.3125 -204.305 407.3125 -203.625 407.3125 C-200.90192147 410.28313112 -199.5860086 412.46846559 -198.625 416.3125 C-197.635 416.6425 -196.645 416.9725 -195.625 417.3125 C-194.10488374 419.00910916 -192.65484854 420.76928036 -191.25 422.5625 C-187.26654534 427.62737362 -183.08738591 432.1927834 -178.125 436.3125 C-175.13344385 438.83783961 -172.39376846 441.54373154 -169.625 444.3125 C-167.96606818 445.65544481 -166.30023395 446.98994688 -164.625 448.3125 C-163.625 449.3125 -162.625 450.3125 -161.625 451.3125 C-160.635 451.9725 -159.645 452.6325 -158.625 453.3125 C-158.625 453.9725 -158.625 454.6325 -158.625 455.3125 C-156.975 455.9725 -155.325 456.6325 -153.625 457.3125 C-153.625 457.9725 -153.625 458.6325 -153.625 459.3125 C-152.305 459.6425 -150.985 459.9725 -149.625 460.3125 C-149.625 460.9725 -149.625 461.6325 -149.625 462.3125 C-148.635 462.3125 -147.645 462.3125 -146.625 462.3125 C-146.625 462.9725 -146.625 463.6325 -146.625 464.3125 C-145.944375 464.56 -145.26375 464.8075 -144.5625 465.0625 C-141.05634917 466.55447908 -137.90879632 468.38085511 -134.625 470.3125 C-134.625 470.9725 -134.625 471.6325 -134.625 472.3125 C-132.975 472.6425 -131.325 472.9725 -129.625 473.3125 C-129.625 473.9725 -129.625 474.6325 -129.625 475.3125 C-127.315 475.9725 -125.005 476.6325 -122.625 477.3125 C-122.625 477.9725 -122.625 478.6325 -122.625 479.3125 C-121.31595703 479.71855469 -121.31595703 479.71855469 -119.98046875 480.1328125 C-116.77565695 481.2595333 -113.93932008 482.60673254 -110.9375 484.1875 C-106.22368566 486.58799978 -101.54430475 488.54996677 -96.54199219 490.25585938 C-93.71282753 491.28068567 -91.00268115 492.4536977 -88.25390625 493.67578125 C-81.04770974 496.69486235 -73.63424877 498.60626256 -66.0625 500.4375 C-65.36244843 500.60992218 -64.66239685 500.78234436 -63.94113159 500.95999146 C-52.91550803 503.67226687 -41.90388026 505.94911887 -30.625 507.3125 C-29.96178238 507.39756302 -29.29856476 507.48262604 -28.61524963 507.57026672 C-23.0391608 508.24892636 -17.54398166 508.48631559 -11.9296875 508.515625 C-11.02782211 508.52268463 -10.12595673 508.52974426 -9.19676208 508.53701782 C59.94954467 508.95532759 119.97115759 487.78228497 172.375 442.3125 C173.29667969 441.51585937 174.21835937 440.71921875 175.16796875 439.8984375 C180.34652908 435.33879739 184.95833893 430.60347969 189.375 425.3125 C190.26160363 424.286534 191.14974713 423.26189758 192.0390625 422.23828125 C196.6112544 416.95095563 201.0471169 411.70853541 204.796875 405.79296875 C206.04596814 403.82966641 207.32535453 401.90683248 208.640625 399.98828125 C214.33227113 391.65999032 219.54402599 383.16772822 224.31787109 374.28027344 C224.99929905 373.01184173 225.68669073 371.74658699 226.38134766 370.48535156 C237.02038946 351.09065875 243.92302153 329.76033628 248.4375 308.1875 C248.70626953 306.94484375 248.97503906 305.7021875 249.25195312 304.421875 C250.72941457 297.36248317 251.75773067 290.47633286 252.19018555 283.27636719 C252.35004898 280.71263915 252.61083136 278.19686531 252.921875 275.6484375 C253.72775979 267.77678331 253.61676635 259.84199439 253.625 251.9375 C253.62667175 251.09233826 253.62834351 250.24717651 253.63006592 249.37640381 C253.63155799 236.8003133 253.12105703 224.63196687 250.375 212.3125 C250.13861816 211.20406738 250.13861816 211.20406738 249.89746094 210.07324219 C249.45924723 208.13601173 248.92452148 206.2211433 248.375 204.3125 C247.715 203.9825 247.055 203.6525 246.375 203.3125 C245.65672635 200.91322456 245.05217629 198.56310091 244.5 196.125 C244.14889376 194.65452696 243.79599606 193.18448065 243.44140625 191.71484375 C243.26367676 190.97347168 243.08594727 190.23209961 242.90283203 189.46826172 C239.09879361 173.93187906 233.76657621 159.50594212 226.41455078 145.34472656 C225.39133729 143.3444379 224.40658774 141.32982089 223.43359375 139.3046875 C216.8299189 125.61214254 209.17329205 112.97046789 199.375 101.3125 C198.12333631 99.7096311 196.87338036 98.10542741 195.625 96.5 C184.6472639 82.78859236 172.17312884 70.16055529 158.375 59.3125 C157.41207031 58.53261719 156.44914062 57.75273438 155.45703125 56.94921875 C144.20868317 48.01041742 132.03723286 40.33474371 119.43359375 33.45043945 C117.3073757 32.27511897 115.21664268 31.04808885 113.125 29.8125 C108.1075496 27.04218123 102.87818557 25.0459187 97.49951172 23.08837891 C95.0071773 22.1781699 92.52146837 21.25074861 90.03515625 20.32421875 C88.10703456 19.61126554 86.17864775 18.89902891 84.25 18.1875 C82.89128784 17.68222778 82.89128784 17.68222778 81.50512695 17.16674805 C74.52732561 14.61623265 67.47745479 12.57054245 60.26586914 10.79248047 C58.51440882 10.3478877 56.78118826 9.83304547 55.05078125 9.3125 C49.58241111 7.82482438 44.04141139 7.23853317 38.42871094 6.57128906 C36.50262053 6.32858152 34.58285693 6.03707591 32.6640625 5.7421875 C-10.75614644 -0.59129482 -56.67823795 6.2503707 -96.91040039 23.18408203 C-99.44928666 24.23945862 -102.0074106 25.21695421 -104.578125 26.19140625 C-110.68658618 28.62980819 -116.34388507 31.83250934 -122.0625 35.0625 C-123.11759766 35.64515625 -124.17269531 36.2278125 -125.25976562 36.828125 C-132.4376229 40.85655936 -139.07079952 45.34002613 -145.625 50.3125 C-146.23609619 50.76657227 -146.84719238 51.22064453 -147.47680664 51.68847656 C-165.29315829 64.94227252 -182.04970365 79.65758092 -195.625 97.3125 C-196.07020996 97.87598145 -196.51541992 98.43946289 -196.97412109 99.02001953 C-209.21710492 114.51731018 -219.37230318 131.37279109 -227.625 149.3125 C-227.94919922 150.01068848 -228.27339844 150.70887695 -228.60742188 151.42822266 C-236.54663819 168.7420594 -242.78904292 187.27745117 -246.0546875 206.06640625 C-246.24289063 206.80761719 -246.43109375 207.54882812 -246.625 208.3125 C-247.285 208.6425 -247.945 208.9725 -248.625 209.3125 C-249.22436528 211.80286272 -249.70746682 214.22831559 -250.125 216.75 C-250.38103677 218.20711456 -250.63754727 219.66414595 -250.89453125 221.12109375 C-251.01779785 221.83507324 -251.14106445 222.54905273 -251.26806641 223.28466797 C-251.74062546 225.96939814 -252.2705139 228.64100824 -252.8125 231.3125 C-253.05033203 232.488125 -253.05033203 232.488125 -253.29296875 233.6875 C-253.45732422 234.491875 -253.45732422 234.491875 -253.625 235.3125 C-252.965 235.6425 -252.305 235.9725 -251.625 236.3125 C-251.78581055 236.81797363 -251.94662109 237.32344727 -252.11230469 237.84423828 C-252.8013666 241.1615792 -252.80692315 244.4312534 -252.828125 247.8046875 C-252.83500336 248.53902008 -252.84188171 249.27335266 -252.84896851 250.02993774 C-252.86620103 252.4158419 -252.87243637 254.80153672 -252.875 257.1875 C-252.87667175 257.99840088 -252.87834351 258.80930176 -252.88006592 259.64477539 C-252.88159706 272.02007075 -252.2041579 284.01433639 -250.00097656 296.21777344 C-249.48094503 299.11509199 -249.06418207 302.02698835 -248.625 304.9375 C-246.68401257 316.0584034 -243.34060369 326.77124371 -239.92578125 337.51171875 C-238.89760471 340.8733456 -238.41177379 343.79426755 -238.625 347.3125 C-240.625 346.3125 -240.625 346.3125 -241.50708008 344.19311523 C-241.79993896 343.26184814 -242.09279785 342.33058105 -242.39453125 341.37109375 C-242.88832275 339.80089478 -242.88832275 339.80089478 -243.39208984 338.19897461 C-243.7370752 337.06081299 -244.08206055 335.92265137 -244.4375 334.75 C-244.79279785 333.58283447 -245.1480957 332.41566895 -245.51416016 331.21313477 C-247.82068237 323.45231049 -249.83645807 315.67338861 -251.5 307.75 C-251.78580933 306.40023071 -251.78580933 306.40023071 -252.07739258 305.02319336 C-255.27943314 288.92030369 -255.99986181 273.06481284 -255.9375 256.6875 C-255.93534485 255.66959381 -255.9331897 254.65168762 -255.93096924 253.60293579 C-255.88129854 238.99386477 -255.63040191 224.66174147 -252.625 210.3125 C-252.42632324 209.33764648 -252.22764648 208.36279297 -252.02294922 207.35839844 C-244.30172138 170.44688079 -229.96435706 135.78571638 -207.625 105.3125 C-206.99295654 104.4450415 -206.99295654 104.4450415 -206.34814453 103.56005859 C-201.02969158 96.31026584 -195.30520198 89.58129206 -189.15625 83.03125 C-187.01684482 80.73337037 -184.9648101 78.39591193 -182.9375 76 C-180.10504106 72.73797383 -177.05227151 69.92186588 -173.75390625 67.13671875 C-172.31447784 65.90330028 -170.90567879 64.63336433 -169.52734375 63.33203125 C-156.46093621 51.02764405 -141.14970193 41.21088602 -125.625 32.3125 C-124.87669922 31.88340332 -124.12839844 31.45430664 -123.35742188 31.01220703 C-100.31716333 17.97679083 -75.08910144 9.30182578 -49.1875 4 C-48.46860596 3.85264404 -47.74971191 3.70528809 -47.0090332 3.5534668 C-31.36274391 0.57960912 -15.88931954 -0.06050362 0 0 Z " fill="#105BB0" transform="translate(255.625,-0.3125)"/>
	<path d="M0 0 C2.62601319 4.78914298 3.40887667 9.88067289 4.5 15.1875 C4.81904297 16.66379883 4.81904297 16.66379883 5.14453125 18.16992188 C8.57733292 34.67053606 9.3765051 50.81613058 9.3125 67.625 C9.31034485 68.64290619 9.3081897 69.66081238 9.30596924 70.70956421 C9.25629854 85.31863523 9.00540191 99.65075853 6 114 C5.70198486 115.46228027 5.70198486 115.46228027 5.39794922 116.95410156 C-2.32327862 153.86561921 -16.66064294 188.52678362 -39 219 C-39.4213623 219.57830566 -39.84272461 220.15661133 -40.27685547 220.75244141 C-45.59530842 228.00223416 -51.31979802 234.73120794 -57.46875 241.28125 C-59.60815518 243.57912963 -61.6601899 245.91658807 -63.6875 248.3125 C-66.51995894 251.57452617 -69.57272849 254.39063412 -72.87109375 257.17578125 C-74.31052216 258.40919972 -75.71932121 259.67913567 -77.09765625 260.98046875 C-90.16406379 273.28485595 -105.47529807 283.10161398 -121 292 C-121.74830078 292.42909668 -122.49660156 292.85819336 -123.26757812 293.30029297 C-146.30783667 306.33570917 -171.53589856 315.01067422 -197.4375 320.3125 C-198.15639404 320.45985596 -198.87528809 320.60721191 -199.6159668 320.7590332 C-215.26225609 323.73289088 -230.73568046 324.37300362 -246.625 324.3125 C-247.64290619 324.31034485 -248.66081238 324.3081897 -249.70956421 324.30596924 C-264.31863523 324.25629854 -278.65075853 324.00540191 -293 321 C-294.46228027 320.70198486 -294.46228027 320.70198486 -295.95410156 320.39794922 C-332.86561921 312.67672138 -367.52678362 298.33935706 -398 276 C-398.57830566 275.5786377 -399.15661133 275.15727539 -399.75244141 274.72314453 C-407.00223416 269.40469158 -413.73120794 263.68020198 -420.28125 257.53125 C-422.57912963 255.39184482 -424.91658807 253.3398101 -427.3125 251.3125 C-430.57452617 248.48004106 -433.39063412 245.42727151 -436.17578125 242.12890625 C-437.40919972 240.68947784 -438.67913567 239.28067879 -439.98046875 237.90234375 C-445.10952834 232.45563748 -449.55820861 226.68537811 -453.9375 220.625 C-454.50549316 219.83947754 -455.07348633 219.05395508 -455.65869141 218.24462891 C-458.03973031 214.90830139 -460.24093617 211.71271665 -462 208 C-461.01 207.01 -461.01 207.01 -460 206 C-460 206.99 -460 207.98 -460 209 C-459.34 209 -458.68 209 -458 209 C-458 209.99 -458 210.98 -458 212 C-457.34 212 -456.68 212 -456 212 C-456 212.66 -456 213.32 -456 214 C-455.34 214 -454.68 214 -454 214 C-453.505 216.475 -453.505 216.475 -453 219 C-452.34 219 -451.68 219 -451 219 C-448.27692147 221.97063112 -446.9610086 224.15596559 -446 228 C-445.01 228.33 -444.02 228.66 -443 229 C-441.47988374 230.69660916 -440.02984854 232.45678036 -438.625 234.25 C-434.64154534 239.31487362 -430.46238591 243.8802834 -425.5 248 C-422.50844385 250.52533961 -419.76876846 253.23123154 -417 256 C-415.34106818 257.34294481 -413.67523395 258.67744688 -412 260 C-411 261 -410 262 -409 263 C-408.01 263.66 -407.02 264.32 -406 265 C-406 265.66 -406 266.32 -406 267 C-404.35 267.66 -402.7 268.32 -401 269 C-401 269.66 -401 270.32 -401 271 C-399.68 271.33 -398.36 271.66 -397 272 C-397 272.66 -397 273.32 -397 274 C-396.01 274 -395.02 274 -394 274 C-394 274.66 -394 275.32 -394 276 C-393.319375 276.2475 -392.63875 276.495 -391.9375 276.75 C-388.43134917 278.24197908 -385.28379632 280.06835511 -382 282 C-382 282.66 -382 283.32 -382 284 C-380.35 284.33 -378.7 284.66 -377 285 C-377 285.66 -377 286.32 -377 287 C-374.69 287.66 -372.38 288.32 -370 289 C-370 289.66 -370 290.32 -370 291 C-368.69095703 291.40605469 -368.69095703 291.40605469 -367.35546875 291.8203125 C-364.15065695 292.9470333 -361.31432008 294.29423254 -358.3125 295.875 C-353.59868566 298.27549978 -348.91930475 300.23746677 -343.91699219 301.94335938 C-341.08782753 302.96818567 -338.37768115 304.1411977 -335.62890625 305.36328125 C-328.42270974 308.38236235 -321.00924877 310.29376256 -313.4375 312.125 C-312.73744843 312.29742218 -312.03739685 312.46984436 -311.31613159 312.64749146 C-300.29050803 315.35976687 -289.27888026 317.63661887 -278 319 C-277.33678238 319.08506302 -276.67356476 319.17012604 -275.99024963 319.25776672 C-270.4141608 319.93642636 -264.91898166 320.17381559 -259.3046875 320.203125 C-258.40282211 320.21018463 -257.50095673 320.21724426 -256.57176208 320.22451782 C-187.42545533 320.64282759 -127.40384241 299.46978497 -75 254 C-74.07832031 253.20335937 -73.15664063 252.40671875 -72.20703125 251.5859375 C-67.02847092 247.02629739 -62.41666107 242.29097969 -58 237 C-57.11339637 235.974034 -56.22525287 234.94939758 -55.3359375 233.92578125 C-50.7637456 228.63845563 -46.3278831 223.39603541 -42.578125 217.48046875 C-41.32903186 215.51716641 -40.04964547 213.59433248 -38.734375 211.67578125 C-33.04272887 203.34749032 -27.83097401 194.85522822 -23.05712891 185.96777344 C-22.37570095 184.69934173 -21.68830927 183.43408699 -20.99365234 182.17285156 C-10.35461054 162.77815875 -3.45197847 141.44783628 1.0625 119.875 C1.33126953 118.63234375 1.60003906 117.3896875 1.87695312 116.109375 C3.35441457 109.04998317 4.38273067 102.16383286 4.81518555 94.96386719 C4.97504898 92.40013915 5.23583136 89.88436531 5.546875 87.3359375 C6.35273076 79.46456683 6.24349766 71.52926676 6.25 63.625 C6.25100708 62.77618256 6.25201416 61.92736511 6.25305176 61.05282593 C6.24294093 48.45666558 5.70421868 36.34205407 3 24 C2.81824219 23.15373047 2.63648438 22.30746094 2.44921875 21.43554688 C2.25972656 20.55447266 2.07023437 19.67339844 1.875 18.765625 C1.6884082 17.89446045 1.50181641 17.0232959 1.30957031 16.12573242 C0.94846484 14.47161099 0.57377523 12.82036928 0.18261719 11.1730957 C-0.74204443 7.13278413 -1.24157652 4.00328839 0 0 Z " fill="#09499C" transform="translate(503,188)"/>
	<path d="M0 0 C0.66 0 1.32 0 2 0 C0.71192678 9.67016164 -1.22059174 19.17911152 -3.17358398 28.73242188 C-4.57850958 35.67896932 -5.77727616 42.5848007 -6.640625 49.62109375 C-7 52 -7 52 -8 54 C-7.34 54.33 -6.68 54.66 -6 55 C-6.16081055 55.50547363 -6.32162109 56.01094727 -6.48730469 56.53173828 C-7.1763666 59.8490792 -7.18192315 63.1187534 -7.203125 66.4921875 C-7.21344254 67.59368637 -7.21344254 67.59368637 -7.22396851 68.71743774 C-7.24120103 71.1033419 -7.24743637 73.48903672 -7.25 75.875 C-7.25167175 76.68590088 -7.25334351 77.49680176 -7.25506592 78.33227539 C-7.25659706 90.70757075 -6.5791579 102.70183639 -4.37597656 114.90527344 C-3.85594503 117.80259199 -3.43918207 120.71448835 -3 123.625 C-1.05901257 134.7459034 2.28439631 145.45874371 5.69921875 156.19921875 C6.72739529 159.5608456 7.21322621 162.48176755 7 166 C5 165 5 165 4.11791992 162.88061523 C3.82506104 161.94934814 3.53220215 161.01808105 3.23046875 160.05859375 C2.90127441 159.01179443 2.57208008 157.96499512 2.23291016 156.88647461 C1.8879248 155.74831299 1.54293945 154.61015137 1.1875 153.4375 C0.83220215 152.27033447 0.4769043 151.10316895 0.11083984 149.90063477 C-2.19568237 142.13981049 -4.21145807 134.36088861 -5.875 126.4375 C-6.06553955 125.53765381 -6.2560791 124.63780762 -6.45239258 123.71069336 C-9.65443314 107.60780369 -10.37486181 91.75231284 -10.3125 75.375 C-10.31034485 74.35709381 -10.3081897 73.33918762 -10.30596924 72.29043579 C-10.22503648 48.48661519 -6.96017997 27.04083824 -1 4 C-0.66524497 2.6670229 -0.33137688 1.33382092 0 0 Z " fill="#0B4FA3" transform="translate(10,181)"/>
	<path d="M0 0 C0.495 0.99 0.495 0.99 1 2 C-0.31484375 1.90912109 -0.31484375 1.90912109 -1.65625 1.81640625 C-5.24066091 1.57963114 -8.82543852 1.36194417 -12.41162109 1.15429688 C-14.16752324 1.0496251 -15.92306409 0.93874288 -17.67822266 0.82226562 C-45.75909678 -1.01327913 -74.12288696 1.13369943 -101.13671875 9.36328125 C-103.94574531 9.98793518 -105.34578594 10.00098097 -108 9 C-78.5460174 -4.72922766 -31.73268602 -7.25062784 0 0 Z " fill="#1B6FC1" transform="translate(292,5)"/>
	<path d="M0 0 C0.33 0 0.66 0 1 0 C1 1.65 1 3.3 1 5 C1.66 5 2.32 5 3 5 C3.33 7.64 3.66 10.28 4 13 C2 12 2 12 1.11328125 10.0390625 C0.84902344 9.24242187 0.58476562 8.44578125 0.3125 7.625 C0.04050781 6.83351563 -0.23148438 6.04203125 -0.51171875 5.2265625 C-1 3 -1 3 0 0 Z " fill="#0A499D" transform="translate(20,351)"/>
	<path d="M0 0 C0 4.03223106 -1.64129026 5.80880447 -4 9 C-4.99 9.495 -4.99 9.495 -6 10 C-4.6302836 6.00499382 -2.74277578 3.19990508 0 0 Z " fill="#0B4DA4" transform="translate(463,402)"/>
</svg>
