<svg xmlns="http://www.w3.org/2000/svg" width="64" height="64" viewBox="0 0 256 256">

	<!-- Corpo do furacão -->
	<path
	  d="M128,96a32,32,0,1,0,32,32A32,32,0,0,0,128,96Zm30.32-50.64,9.41-35.3A8,8,0,0,0,158.32.18,195.87,195.87,0,0,0,99.67,25.27C60.63,50.37,40,85.89,40,128a88.11,88.11,0,0,0,57.68,82.64l-9.41,35.3a8,8,0,0,0,9.41,9.88,195.87,195.87,0,0,0,58.65-25.09C195.37,205.63,216,170.11,216,128A88.1,88.1,0,0,0,158.32,45.36Z"
	  fill="#B4D400"
	  stroke="#1A1A1A"
	  stroke-width="12"
  />

	<!-- Olho -->
	<circle cx="128" cy="128" r="16" fill="#1A1A1A" />

</svg>
